<svg width="308" height="124" viewBox="0 0 308 124" fill="none" xmlns="http://www.w3.org/2000/svg">
<path d="M2.8016 0H33.4016C34.1462 0 34.8624 0.286435 35.4016 0.799988L152.702 118.7C153.088 119.105 153.348 119.613 153.453 120.162C153.557 120.712 153.5 121.28 153.288 121.798C153.077 122.315 152.72 122.761 152.261 123.081C151.802 123.401 151.261 123.581 150.702 123.6H119.802C119.432 123.605 119.065 123.537 118.722 123.4C118.378 123.263 118.066 123.059 117.802 122.8L0.801595 4.89999C0.415505 4.49524 0.154705 3.98748 0.050634 3.43788C-0.0534368 2.88828 0.00366531 2.32032 0.215047 1.80243C0.426429 1.28454 0.783066 0.83883 1.24199 0.519028C1.70092 0.199225 2.24255 0.0189814 2.8016 0V0Z" fill="#FECB00"/>
<path d="M79.6016 0H110.202C110.946 0 111.662 0.286435 112.202 0.799988L229.502 118.7C229.888 119.105 230.148 119.613 230.253 120.162C230.357 120.712 230.3 121.28 230.088 121.798C229.877 122.315 229.52 122.761 229.061 123.081C228.602 123.401 228.061 123.581 227.502 123.6H196.602C196.232 123.605 195.865 123.537 195.522 123.4C195.178 123.263 194.866 123.059 194.602 122.8L77.6016 4.89999C77.2155 4.49524 76.9547 3.98748 76.8506 3.43788C76.7466 2.88828 76.8036 2.32032 77.015 1.80243C77.2264 1.28454 77.5831 0.83883 78.042 0.519028C78.5009 0.199225 79.0425 0.0189814 79.6016 0Z" fill="#FECB00"/>
<path d="M156.402 0H187.002C187.746 0 188.462 0.286435 189.002 0.799988L306.302 118.7C306.688 119.105 306.948 119.613 307.053 120.162C307.157 120.712 307.1 121.28 306.888 121.798C306.677 122.315 306.32 122.761 305.861 123.081C305.402 123.401 304.861 123.581 304.302 123.6H273.402C273.032 123.605 272.665 123.537 272.322 123.4C271.978 123.263 271.666 123.059 271.402 122.8L154.402 4.89999C154.015 4.49524 153.755 3.98748 153.651 3.43788C153.547 2.88828 153.604 2.32032 153.815 1.80243C154.026 1.28454 154.383 0.83883 154.842 0.519028C155.301 0.199225 155.843 0.0189814 156.402 0V0Z" fill="#FECB00"/>
</svg>
