<svg id="Capa_1" data-name="Capa 1" xmlns="http://www.w3.org/2000/svg" viewBox="0 0 458.94 69.97"><defs><style>.cls-1{fill:#131211;}.cls-2{fill:#fecb00;}</style></defs><title>LOGO</title><line class="cls-1" x1="147.6" y1="33.19" x2="147.6" y2="33.21"/><path class="cls-1" d="M100.91,221.41v45.86a15.49,15.49,0,0,1-.1,2.16,2,2,0,0,1-.58,1,2.81,2.81,0,0,1-1.44.91,10.45,10.45,0,0,1-2.6.24H86.85a11.65,11.65,0,0,1-2.74-.24,2.36,2.36,0,0,1-1.39-.91,2,2,0,0,1-.53-1.1c0-.35,0-1.13,0-2.34V221.41H34.84c-1.53,0-2.81,0-3.86.09a12.93,12.93,0,0,0-2.71.43,9.49,9.49,0,0,0-2,.87,11.26,11.26,0,0,0-1.86,1.38q-3.9,3.56-3.9,10.25v50.85h13.7V260.09H62V246.4H34.17v-7.21q0-4.09,4.69-4.09H68.45v34.28c0,1.66,0,3.06.14,4.21a14.39,14.39,0,0,0,.53,3,9.69,9.69,0,0,0,1,2.39,13.76,13.76,0,0,0,1.72,2.25,12.52,12.52,0,0,0,4.46,3.12,18.17,18.17,0,0,0,6.36.91h17.72a17.92,17.92,0,0,0,6.27-.91,12.49,12.49,0,0,0,4.45-3.12,14.44,14.44,0,0,0,1.73-2.25,10.5,10.5,0,0,0,1.05-2.39,15.84,15.84,0,0,0,.53-3.06c.09-1.19.14-2.6.14-4.27V221.41Z" transform="translate(-20.47 -215.3)"/><path class="cls-1" d="M136.62,221.41v47.2a2.68,2.68,0,0,0,.86,1.92,2.73,2.73,0,0,0,.53.57,1.65,1.65,0,0,0,.77.29,10.22,10.22,0,0,0,1.38.14c.58,0,1.38.05,2.4.05h21.73v13.7H138.82a22.83,22.83,0,0,1-7.1-1,14.8,14.8,0,0,1-5.18-3,9.77,9.77,0,0,1-2.8-4.36,25.35,25.35,0,0,1-.81-7.32V221.41Z" transform="translate(-20.47 -215.3)"/><path class="cls-1" d="M183.83,221.41v47.2a2.64,2.64,0,0,0,.86,1.92,2.73,2.73,0,0,0,.53.57,1.6,1.6,0,0,0,.76.29,10.39,10.39,0,0,0,1.39.14c.57,0,1.37.05,2.39.05H211.5v13.7H186a22.78,22.78,0,0,1-7.1-1,14.8,14.8,0,0,1-5.18-3,9.88,9.88,0,0,1-2.81-4.36,25.35,25.35,0,0,1-.81-7.32V221.41Z" transform="translate(-20.47 -215.3)"/><path class="cls-2" d="M217.34,221.41h33.11a15.51,15.51,0,0,1,6.09,1.05,11.33,11.33,0,0,1,4.27,3.26,13.22,13.22,0,0,1,1.15,1.72,7,7,0,0,1,.72,2,20.08,20.08,0,0,1,.34,2.68c.06,1,.09,2.27.09,3.74V241c0,.89-.05,1.78-.14,2.68s-.21,1.72-.34,2.49a10.72,10.72,0,0,1-.53,2.15,7.54,7.54,0,0,1-.91,1.73,7.91,7.91,0,0,1-1.44,1.53c-.57.48-1.28,1-2.11,1.58a12.5,12.5,0,0,1,2.21,1.43,8.7,8.7,0,0,1,2.54,4,17.93,17.93,0,0,1,.91,5.84v6.41q0,6.9-3.5,10.63t-10,3.74H217.34Zm27.65,25h1.25a3,3,0,0,0,2.31-1,3.68,3.68,0,0,0,.87-2.54v-4.28a3.62,3.62,0,0,0-.92-2.49,2.91,2.91,0,0,0-2.26-1H231v11.3Zm.41,25.18q3.82,0,3.83-3.64v-4.11c0-2.49-1.38-3.74-4.12-3.74H231v11.49Z" transform="translate(-20.47 -215.3)"/><path class="cls-2" d="M272.73,228.68a12.54,12.54,0,0,1,3.5-4.8,9.79,9.79,0,0,1,3.88-1.9,24.22,24.22,0,0,1,5.79-.57h16.28q7.36,0,10.82,3.33t3.45,10.36v36.48q0,13.69-14.37,13.7H285.9a25.42,25.42,0,0,1-5.89-.58,9.8,9.8,0,0,1-4-1.91,11.89,11.89,0,0,1-3.31-4.74,16.75,16.75,0,0,1-1.29-6.47V235.1A16.08,16.08,0,0,1,272.73,228.68ZM286.1,236c-.65.61-1,1.78-1,3.51v27.55a4.74,4.74,0,0,0,1.06,3.5,5.08,5.08,0,0,0,3.57,1h8.47a5.48,5.48,0,0,0,3.56-.86,4.17,4.17,0,0,0,1-3.17v-28q0-2.6-1-3.51a5.28,5.28,0,0,0-3.56-.91h-8.47C288,235.1,286.74,235.41,286.1,236Z" transform="translate(-20.47 -215.3)"/><path class="cls-2" d="M340.67,252.62l-19.92-31.21h16.38l10.63,17.9,11.3-17.9h16.27l-19.82,31.21,21,32.66H360.2l-12.63-19.54L336,285.28H319.7Z" transform="translate(-20.47 -215.3)"/><path class="cls-2" d="M469.47,240.29l9.79-11.91a.67.67,0,0,0,0-.86l-9.79-11.91a.88.88,0,0,0-1.54.43v5.37H442.07q-5.26,0-8.14,2a11.29,11.29,0,0,0-3.49,4.55,14.33,14.33,0,0,0-1.39,6.08v13.5a12,12,0,0,0,1,4.88,13.15,13.15,0,0,0,2.72,4,12.12,12.12,0,0,0,4.07,2.68,13.17,13.17,0,0,0,5,1h11.4a2.83,2.83,0,0,1,2.15.86,3.23,3.23,0,0,1,.81,2.3v4.6a3.37,3.37,0,0,1-1.14,2.82,6.06,6.06,0,0,1-3.74.91H396.88q-3.54,0-3.54-4.4v-7.09h28V246.4h-28V235.1h28V221.41H392.86q-6.27,0-9.75,3.64c-2.11,2.21-3.24,5.27-3.42,9.14h-.05V272q0,13.3,15.23,13.31h61.37q6.33,0,10-3.59t3.69-9.88V259q0-5.83-3.45-9.22t-9.29-3.39h-10q-4.5,0-4.5-3.7v-4.39q0-3.21,5-3.21h20.21v4.76A.87.87,0,0,0,469.47,240.29Z" transform="translate(-20.47 -215.3)"/></svg>