<svg width="459" height="70" viewBox="0 0 459 70" fill="none" xmlns="http://www.w3.org/2000/svg">
<g clip-path="url(#clip0)">
<path d="M80.44 6.11V51.97C80.457 52.6914 80.4236 53.4132 80.34 54.13C80.2493 54.5131 80.0476 54.861 79.76 55.13C79.3857 55.575 78.8826 55.893 78.32 56.04C77.4668 56.2284 76.5933 56.309 75.72 56.28H66.38C65.4604 56.3085 64.5407 56.2279 63.64 56.04C63.0817 55.9152 62.5877 55.5918 62.25 55.13C61.963 54.8275 61.7777 54.4429 61.72 54.03C61.72 53.68 61.72 52.9 61.72 51.69V6.11H14.37C12.84 6.11 11.56 6.11 10.51 6.2C9.59398 6.2468 8.68553 6.39094 7.80001 6.62999C7.10212 6.84216 6.43102 7.1341 5.80001 7.5C5.13422 7.89484 4.51093 8.35728 3.94001 8.87999C1.34001 11.2533 0.0400085 14.67 0.0400085 19.13V69.98H13.74V44.79H41.53V31.1H13.7V23.89C13.7 21.1633 15.2633 19.8 18.39 19.8H47.98V54.08C47.98 55.74 47.98 57.14 48.12 58.29C48.19 59.3059 48.3677 60.3116 48.65 61.29C48.8749 62.1278 49.2112 62.9317 49.65 63.68C50.1444 64.4872 50.7208 65.2412 51.37 65.93C52.6099 67.2845 54.1325 68.3497 55.83 69.05C57.8791 69.7287 60.0328 70.0369 62.19 69.96H79.91C82.0375 70.0315 84.1606 69.7233 86.18 69.05C87.8744 68.3492 89.3937 67.284 90.63 65.93C91.2792 65.2386 91.8586 64.485 92.36 63.68C92.8081 62.9301 93.1608 62.1272 93.41 61.29C93.6865 60.2898 93.864 59.2649 93.94 58.23C94.03 57.04 94.08 55.63 94.08 53.96V6.11H80.44Z" fill="white"/>
<path d="M116.15 6.11V53.31C116.156 53.6715 116.236 54.028 116.384 54.3579C116.532 54.6879 116.745 54.9845 117.01 55.23C117.159 55.4443 117.337 55.6363 117.54 55.8C117.768 55.9601 118.033 56.0599 118.31 56.09C118.766 56.1679 119.227 56.2146 119.69 56.23C120.27 56.23 121.07 56.28 122.09 56.28H143.82V69.98H118.35C115.945 70.0227 113.549 69.6852 111.25 68.98C109.337 68.3433 107.574 67.3224 106.07 65.98C104.761 64.8052 103.794 63.2989 103.27 61.62C102.645 59.2324 102.372 56.7664 102.46 54.3V6.11H116.15Z" fill="white"/>
<path d="M163.36 6.11V53.31C163.364 53.6719 163.443 54.0291 163.59 54.3594C163.738 54.6897 163.953 54.986 164.22 55.23C164.369 55.4443 164.547 55.6363 164.75 55.8C164.974 55.9605 165.236 56.0604 165.51 56.09C165.97 56.1678 166.434 56.2146 166.9 56.23C167.47 56.23 168.27 56.28 169.29 56.28H191.03V69.98H165.53C163.125 70.0235 160.729 69.686 158.43 68.98C156.517 68.3433 154.754 67.3224 153.25 65.98C151.942 64.8029 150.972 63.2977 150.44 61.62C149.815 59.2324 149.542 56.7664 149.63 54.3V6.11H163.36Z" fill="white"/>
<path d="M196.87 6.11H229.98C232.06 6.04795 234.131 6.40504 236.07 7.16001C237.734 7.88864 239.199 9.00673 240.34 10.42C240.768 10.9624 241.152 11.5375 241.49 12.14C241.83 12.7661 242.073 13.4406 242.21 14.14C242.383 15.0247 242.497 15.92 242.55 16.82C242.61 17.82 242.64 19.09 242.64 20.56V25.7C242.64 26.59 242.59 27.48 242.5 28.38C242.41 29.28 242.29 30.1 242.16 30.87C242.058 31.603 241.88 32.3236 241.63 33.02C241.403 33.6337 241.097 34.2153 240.72 34.75C240.31 35.3218 239.826 35.8363 239.28 36.28C238.71 36.76 238 37.28 237.17 37.86C237.955 38.2576 238.696 38.7369 239.38 39.29C240.58 40.3626 241.46 41.7473 241.92 43.29C242.544 45.1729 242.852 47.1464 242.83 49.13V55.54C242.83 60.14 241.663 63.6833 239.33 66.17C236.997 68.6567 233.663 69.9033 229.33 69.91H196.87V6.11ZM224.52 31.11H225.77C226.204 31.1206 226.636 31.0366 227.035 30.864C227.434 30.6913 227.79 30.4341 228.08 30.11C228.68 29.4031 228.99 28.496 228.95 27.57V23.29C228.97 22.3734 228.641 21.4836 228.03 20.8C227.75 20.4777 227.402 20.221 227.011 20.0482C226.621 19.8753 226.197 19.7906 225.77 19.8H210.53V31.1L224.52 31.11ZM224.93 56.29C227.477 56.29 228.753 55.0767 228.76 52.65V48.54C228.76 46.05 227.38 44.8 224.64 44.8H210.53V56.29H224.93Z" fill="#FECB00"/>
<path d="M252.26 13.38C253.025 11.5227 254.226 9.87657 255.76 8.57999C256.896 7.66564 258.221 7.01649 259.64 6.67999C261.54 6.25803 263.484 6.06665 265.43 6.10999H281.71C286.617 6.10999 290.223 7.22 292.53 9.44C294.837 11.66 295.987 15.1133 295.98 19.8V56.28C295.98 65.4066 291.19 69.9733 281.61 69.98H265.43C263.451 70.0167 261.474 69.822 259.54 69.4C258.078 69.0772 256.71 68.4238 255.54 67.49C254.063 66.2064 252.927 64.5782 252.23 62.75C251.375 60.7002 250.937 58.5008 250.94 56.28V19.8C250.935 17.5921 251.384 15.4067 252.26 13.38V13.38ZM265.63 20.7C264.98 21.31 264.63 22.48 264.63 24.21V51.76C264.566 52.3845 264.627 53.0155 264.809 53.6163C264.991 54.2172 265.29 54.7759 265.69 55.26C266.712 56.0312 267.987 56.3883 269.26 56.26H277.73C278.98 56.3901 280.237 56.0865 281.29 55.4C281.665 54.9684 281.947 54.4643 282.119 53.9189C282.292 53.3736 282.35 52.7987 282.29 52.23V24.23C282.29 22.4967 281.957 21.3267 281.29 20.72C280.251 20.0002 278.987 19.6773 277.73 19.81H269.26C267.53 19.8 266.27 20.11 265.63 20.7Z" fill="#FECB00"/>
<path d="M320.2 37.32L300.28 6.11H316.66L327.29 24.01L338.59 6.11H354.86L335.04 37.32L356.04 69.98H339.73L327.1 50.44L315.53 69.98H299.23L320.2 37.32Z" fill="#FECB00"/>
<path d="M449 24.99L458.79 13.08C458.891 12.9594 458.946 12.8072 458.946 12.65C458.946 12.4928 458.891 12.3406 458.79 12.22L449 0.309993C448.891 0.181661 448.748 0.0872297 448.587 0.0378981C448.426 -0.0114334 448.254 -0.0135995 448.092 0.0316573C447.93 0.0769141 447.784 0.167694 447.672 0.293239C447.56 0.418783 447.487 0.573823 447.46 0.739986V6.11H421.6C418.093 6.11 415.38 6.77666 413.46 8.11C411.924 9.30103 410.722 10.8682 409.97 12.66C409.066 14.56 408.591 16.6358 408.58 18.74V32.24C408.568 33.9187 408.909 35.5812 409.58 37.12C410.232 38.61 411.154 39.9663 412.3 41.12C413.461 42.2797 414.846 43.1914 416.37 43.8C417.956 44.4559 419.654 44.7956 421.37 44.8H432.77C433.169 44.7836 433.566 44.8518 433.937 45C434.308 45.1483 434.643 45.3731 434.92 45.66C435.48 46.2914 435.771 47.117 435.73 47.96V52.56C435.774 53.0865 435.694 53.6161 435.496 54.1059C435.298 54.5958 434.988 55.0322 434.59 55.38C433.475 56.0817 432.162 56.4012 430.85 56.29H376.41C374.05 56.29 372.87 54.8233 372.87 51.89V44.8H400.87V31.1H372.87V19.8H400.87V6.11H372.39C368.21 6.11 364.96 7.32333 362.64 9.75C360.53 11.96 359.4 15.02 359.22 18.89H359.17V56.7C359.17 65.5667 364.247 70.0033 374.4 70.01H435.77C439.99 70.01 443.323 68.8133 445.77 66.42C448.217 64.0267 449.447 60.7333 449.46 56.54V43.7C449.46 39.8133 448.31 36.74 446.01 34.48C443.71 32.22 440.613 31.09 436.72 31.09H426.72C423.72 31.09 422.22 29.8567 422.22 27.39V23C422.22 20.86 423.887 19.79 427.22 19.79H447.43V24.55C447.445 24.7268 447.513 24.8948 447.626 25.0316C447.739 25.1684 447.891 25.2673 448.062 25.3152C448.233 25.3631 448.414 25.3576 448.582 25.2995C448.75 25.2413 448.895 25.1333 449 24.99V24.99Z" fill="#FECB00"/>
</g>
<defs>
<clipPath id="clip0">
<rect width="458.94" height="69.97" fill="white"/>
</clipPath>
</defs>
</svg>
